<svg width="15" height="15" viewBox="0 0 15 15" fill="none" xmlns="http://www.w3.org/2000/svg">
<path d="M6.9453 0.3698C7.2812 0.145867 7.7188 0.145867 8.0547 0.3698L14.5547 4.70313C14.8329 4.8886 15 5.20083 15 5.53518V14C15 14.5523 14.5523 15 14 15H11.3125C10.7602 15 10.3125 14.5523 10.3125 14V10.1667C10.3125 9.61438 9.86478 9.16667 9.3125 9.16667H5.6875C5.13522 9.16667 4.6875 9.61438 4.6875 10.1667V14C4.6875 14.5523 4.23978 15 3.6875 15H1C0.447715 15 0 14.5523 0 14V5.53518C0 5.20083 0.167101 4.8886 0.4453 4.70313L6.9453 0.3698Z" fill="black"/>
</svg>
