<svg width="16" height="16" viewBox="0 0 16 16" fill="none" xmlns="http://www.w3.org/2000/svg">
<path d="M8 9.14286C6.82126 9.14286 5.6908 8.7415 4.8573 8.02707C4.02381 7.31265 3.55556 6.34368 3.55556 5.33333H5.33333C5.33333 5.93954 5.61428 6.52092 6.11438 6.94958C6.61448 7.37823 7.29276 7.61905 8 7.61905C8.70724 7.61905 9.38552 7.37823 9.88562 6.94958C10.3857 6.52092 10.6667 5.93954 10.6667 5.33333H12.4444C12.4444 6.34368 11.9762 7.31265 11.1427 8.02707C10.3092 8.7415 9.17874 9.14286 8 9.14286ZM8 1.52381C8.70724 1.52381 9.38552 1.76463 9.88562 2.19328C10.3857 2.62193 10.6667 3.20331 10.6667 3.80952H5.33333C5.33333 3.20331 5.61428 2.62193 6.11438 2.19328C6.61448 1.76463 7.29276 1.52381 8 1.52381ZM14.2222 3.80952H12.4444C12.4444 3.30925 12.3295 2.81387 12.1061 2.35168C11.8828 1.88949 11.5554 1.46953 11.1427 1.11578C10.73 0.762037 10.24 0.481429 9.70082 0.289983C9.16159 0.0985363 8.58365 0 8 0C6.82126 0 5.6908 0.401359 4.8573 1.11578C4.02381 1.83021 3.55556 2.79918 3.55556 3.80952H1.77778C0.791111 3.80952 0 4.48762 0 5.33333V14.4762C0 14.8803 0.187301 15.2679 0.520699 15.5537C0.854097 15.8395 1.30628 16 1.77778 16H14.2222C14.6937 16 15.1459 15.8395 15.4793 15.5537C15.8127 15.2679 16 14.8803 16 14.4762V5.33333C16 4.92919 15.8127 4.54161 15.4793 4.25584C15.1459 3.97007 14.6937 3.80952 14.2222 3.80952Z" fill="black"/>
</svg>
