<svg width="20" height="13" viewBox="0 0 20 13" fill="none" xmlns="http://www.w3.org/2000/svg">
<path d="M10 0C10.7735 0 11.5154 0.330603 12.0624 0.919079C12.6094 1.50756 12.9167 2.3057 12.9167 3.13793C12.9167 3.97016 12.6094 4.76831 12.0624 5.35678C11.5154 5.94526 10.7735 6.27586 10 6.27586C9.22645 6.27586 8.48459 5.94526 7.93761 5.35678C7.39062 4.76831 7.08333 3.97016 7.08333 3.13793C7.08333 2.3057 7.39062 1.50756 7.93761 0.919079C8.48459 0.330603 9.22645 0 10 0ZM4.16667 2.24138C4.54811 2.24138 4.90728 2.33123 5.23052 2.49623C5.36388 2.56431 5.43125 2.71152 5.42362 2.86105C5.36664 3.97707 5.66563 5.07334 6.24875 5.97152C6.32873 6.09471 6.34548 6.25197 6.27034 6.37817C5.82649 7.12371 5.05257 7.62069 4.16667 7.62069C3.50363 7.62069 2.86774 7.33732 2.3989 6.83291C1.93006 6.3285 1.66667 5.64438 1.66667 4.93104C1.66667 4.21769 1.93006 3.53357 2.3989 3.02916C2.86774 2.52475 3.50363 2.24138 4.16667 2.24138ZM15.8333 2.24138C16.4964 2.24138 17.1323 2.52475 17.6011 3.02916C18.0699 3.53357 18.3333 4.21769 18.3333 4.93104C18.3333 5.64438 18.0699 6.3285 17.6011 6.83291C17.1323 7.33732 16.4964 7.62069 15.8333 7.62069C14.9474 7.62069 14.1734 7.12367 13.7296 6.37808C13.6545 6.25192 13.6712 6.09473 13.7512 5.97157C14.3411 5.06282 14.6315 3.96748 14.576 2.86065C14.5686 2.71134 14.636 2.56442 14.7691 2.49643C15.0924 2.3313 15.4517 2.24138 15.8333 2.24138ZM4.58333 11.431C4.58333 9.57517 7.00833 8.06897 10 8.06897C12.9917 8.06897 15.4167 9.57517 15.4167 11.431V12.6C15.4167 12.8209 15.2376 13 15.0167 13H4.98333C4.76242 13 4.58333 12.8209 4.58333 12.6V11.431ZM0.4 13C0.179087 13 0 12.8209 0 12.6V11.6552C0 10.6121 1.10336 9.70723 2.71396 9.2612C3.06398 9.16427 3.33564 9.59356 3.20023 9.93056C3.01831 10.3833 2.91667 10.8935 2.91667 11.431V12.6C2.91667 12.8209 2.73758 13 2.51667 13H0.4ZM20 12.6C20 12.8209 19.8209 13 19.6 13H17.4833C17.2624 13 17.0833 12.8209 17.0833 12.6V11.431C17.0833 10.8935 16.9817 10.3833 16.7998 9.93056C16.6644 9.59356 16.936 9.16427 17.286 9.2612C18.8966 9.70723 20 10.6121 20 11.6552V12.6Z" fill="black"/>
</svg>
