<svg width="16" height="13" viewBox="0 0 16 13" fill="none" xmlns="http://www.w3.org/2000/svg">
<path fill-rule="evenodd" clip-rule="evenodd" d="M1.6 0H6.4L8 1.625H14.4C14.8243 1.625 15.2313 1.7962 15.5314 2.10095C15.8314 2.4057 16 2.81902 16 3.25V11.375C16 11.806 15.8314 12.2193 15.5314 12.524C15.2313 12.8288 14.8243 13 14.4 13H1.6C1.17565 13 0.768687 12.8288 0.468629 12.524C0.168571 12.2193 0 11.806 0 11.375V1.625C0 0.723125 0.712 0 1.6 0ZM8 9.75C9.10457 9.75 10 8.77995 10 7.58333C10 6.38672 9.10457 5.41667 8 5.41667C6.89543 5.41667 6 6.38672 6 7.58333C6 8.77995 6.89543 9.75 8 9.75Z" fill="black"/>
</svg>
